<svg xmlns="http://www.w3.org/2000/svg" width="24" height="24" fill="blue" class="bi bi-image" viewBox="0 0 16 16">
  <path d="M14.002 3H1.998A1.001 1.001 0 0 0 1 3.998v8.004c0 .551.447.998.998.998h12.004c.551 0 .998-.447.998-.998V3.998A1.001 1.001 0 0 0 14.002 3zm-12.004-.998h12.004A1.998 1.998 0 0 1 16 3.998v8.004a1.998 1.998 0 0 1-1.998 1.998H1.998A1.998 1.998 0 0 1 0 12.002V3.998A1.998 1.998 0 0 1 1.998 2.002z"/>
  <path d="M10.648 7.646a.5.5 0 0 1 .704-.002L14 10.293V12H2v-.707l3.352-3.647a.5.5 0 0 1 .728 0l1.849 2.018 2.719-2.018z"/>
  <path d="M5.002 5a1 1 0 1 0 0-2 1 1 0 0 0 0 2z"/>
</svg>